# xmcd
#
# Track frame offsets:
#	150
#	12245
#	23182
#	39889
#	53821
#	65271
#	80513
#	93935
#	109261
#	123557
#	136964
#	151490
#	162778
#	172616
#	183645
#	201833
#	212033
#	225665
#	237537
#	250018
#	262684
#	277037
#	293130
#
# Disc length: 4061 seconds
#
# Revision: 1
# Processed by: cddbd v1.4PL0 Copyright (c) Steve Scherf et al.
# Submitted via: audiograbber 1.82.02
#
DISCID=360fdb17
DTITLE=Cornell Hurd Band - Song Of South Austin
DYEAR=2002
DGENRE=Country
TTITLE0=Shiny And New
TTITLE1=Rubboard Playin' Man
TTITLE2=Texas Night Train
TTITLE3=I've Gotta Lotta Livin' To Do
TTITLE4=Because It's You
TTITLE5=Rock and Roll Honky Tonkin' Man
TTITLE6=I'm Not Drinkin To Drown My Sorrows (I'm Just Takin' 'Em For A Swim)
TTITLE7=Maybe I Do
TTITLE8=The Heart Of A Clown
TTITLE9=Don't Pretend You're Doing This For Me
TTITLE10=Nyquil Blues
TTITLE11=From The Land Of Sky Blue Waters
TTITLE12=Cool Touch, Hot Night
TTITLE13=Pass The Booze
TTITLE14=Love Is No Excuse
TTITLE15=The Garbageman
TTITLE16=Only A Fool
TTITLE17=Jealously Insane
TTITLE18=Full Moon In Austin
TTITLE19=The Ten Gallon Boogie
TTITLE20=She Once Lived Here
TTITLE21=Maypo
TTITLE22=Don't Wipe Your Face On Your Shirt
EXTD=
EXTT0=
EXTT1=
EXTT2=
EXTT3=
EXTT4=
EXTT5=
EXTT6=
EXTT7=
EXTT8=
EXTT9=
EXTT10=
EXTT11=
EXTT12=
EXTT13=
EXTT14=
EXTT15=
EXTT16=
EXTT17=
EXTT18=
EXTT19=
EXTT20=
EXTT21=
EXTT22=
PLAYORDER=
